<?xml version="1.0" encoding="utf-8"?>
<!-- Generator: Adobe Illustrator 24.3.0, SVG Export Plug-In . SVG Version: 6.00 Build 0)  -->
<svg version="1.1" id="Capa_1" xmlns="http://www.w3.org/2000/svg" xmlns:xlink="http://www.w3.org/1999/xlink" x="0px" y="0px"
	 viewBox="0 0 2138.3 2138.3" style="enable-background:new 0 0 2138.3 2138.3;" xml:space="preserve">
<style type="text/css">
	.st0{fill:#FCFAFC;}
</style>
<path class="st0" d="M1032.9,1852.7c0,98.1-79.5,177.6-177.6,177.6s-177.6-79.5-177.6-177.6c0-98.1,79.5-177.6,177.6-177.6
	S1032.9,1754.6,1032.9,1852.7z M1574.4,1675.1c-98.1,0-177.6,79.5-177.6,177.6s79.5,177.6,177.6,177.6s177.6-79.5,177.6-177.6
	C1752,1754.6,1672.5,1675.1,1574.4,1675.1z M2125.6,841.4l-218.5,649.5c0,0-18.1,96.4-110.2,96.4s-993.4,0-1103.4,0
	s-114.6-120.8-114.6-120.8S461.6,596.6,455.8,544.1s-73-91.5-73-91.5L93.7,317.5c-158.3-82.8-86.3-240.3,0-204.1
	c366.7,173,537,258.1,547.9,326.2c11.1,68.3,30.4,232.6,30.4,232.6v1.1c2.2-0.7,3.8-1.1,3.8-1.1s1124.4,0,1351.5,0
	C2190.4,672.3,2125.6,841.7,2125.6,841.4z M1809.5,1203.1l-2.2,0.1H737.6l22,174.8h997.9L1809.5,1203.1z M1913.7,850.5H693.3
	l23.5,186.8c234.1,0,919.6,0,1141.7,0L1913.7,850.5z"/>
</svg>
